# Blender v2.83.4 OBJ File: ''
# www.blender.org
mtllib 2.mtl
o Cube.001
v 8.225941 76.741325 -9.457618
v -7.862988 76.461327 -8.493639
v -6.794238 66.624634 6.486786
v 9.294691 66.904633 5.522808
v 9.079967 57.075733 -0.915885
v -7.008962 56.795742 0.048094
v -8.077712 66.632431 -14.932332
v 8.011216 66.912430 -15.896312
vt 0.625000 0.500000
vt 0.875000 0.500000
vt 0.875000 0.750000
vt 0.625000 0.750000
vt 0.375000 0.750000
vt 0.625000 1.000000
vt 0.375000 1.000000
vt 0.375000 0.000000
vt 0.625000 0.000000
vt 0.625000 0.250000
vt 0.375000 0.250000
vt 0.125000 0.500000
vt 0.375000 0.500000
vt 0.125000 0.750000
vn 0.0183 0.8364 0.5479
vn 0.0595 -0.5479 0.8344
vn -0.9981 -0.0174 0.0598
vn -0.0183 -0.8364 -0.5479
vn 0.9981 0.0174 -0.0598
vn -0.0595 0.5479 -0.8344
usemtl Material.001
s 1
f 1/1/1 2/2/1 3/3/1 4/4/1
f 5/5/2 4/4/2 3/6/2 6/7/2
f 6/8/3 3/9/3 2/10/3 7/11/3
f 7/12/4 8/13/4 5/5/4 6/14/4
f 8/13/5 1/1/5 4/4/5 5/5/5
f 7/11/6 2/10/6 1/1/6 8/13/6
