# Blender v2.83.4 OBJ File: ''
# www.blender.org
mtllib 3b.mtl
o Cube.001
v -16.897455 108.049568 -14.810034
v -39.410511 103.077614 -16.156527
v -39.529430 96.082657 11.875661
v -17.016375 101.054611 13.222157
v -13.347197 83.806564 8.935445
v -35.860252 78.834618 7.588948
v -35.741333 85.829575 -20.443241
v -13.228275 90.801529 -19.096746
vt 0.625000 0.500000
vt 0.875000 0.500000
vt 0.875000 0.750000
vt 0.625000 0.750000
vt 0.375000 0.750000
vt 0.625000 1.000000
vt 0.375000 1.000000
vt 0.375000 0.000000
vt 0.625000 0.000000
vt 0.625000 0.250000
vt 0.375000 0.250000
vt 0.125000 0.500000
vt 0.375000 0.500000
vt 0.125000 0.750000
vn -0.2230 0.9460 0.2351
vn -0.0046 -0.2421 0.9702
vn -0.9793 -0.1952 -0.0529
vn 0.2230 -0.9460 -0.2351
vn 0.9793 0.1952 0.0529
vn 0.0046 0.2421 -0.9702
usemtl Material.001
s 1
f 1/1/1 2/2/1 3/3/1 4/4/1
f 5/5/2 4/4/2 3/6/2 6/7/2
f 6/8/3 3/9/3 2/10/3 7/11/3
f 7/12/4 8/13/4 5/5/4 6/14/4
f 8/13/5 1/1/5 4/4/5 5/5/5
f 7/11/6 2/10/6 1/1/6 8/13/6
