# Blender v2.83.4 OBJ File: ''
# www.blender.org
mtllib 4.mtl
o Cube.001
v 12.727282 100.188942 -2.910084
v -9.579929 95.893425 -4.382547
v -8.835909 83.046600 15.482700
v 13.471303 87.342117 16.955162
v 15.965022 70.820038 6.124439
v -6.342189 66.524521 4.651976
v -7.086211 79.371346 -15.213273
v 15.221001 83.666870 -13.740808
vt 0.625000 0.500000
vt 0.875000 0.500000
vt 0.875000 0.750000
vt 0.625000 0.750000
vt 0.375000 0.750000
vt 0.625000 1.000000
vt 0.375000 1.000000
vt 0.375000 0.000000
vt 0.625000 0.000000
vt 0.625000 0.250000
vt 0.375000 0.250000
vt 0.125000 0.500000
vt 0.375000 0.500000
vt 0.125000 0.750000
vn -0.1935 0.8205 0.5379
vn 0.0491 -0.5424 0.8387
vn -0.9916 -0.1222 -0.0419
vn 0.1935 -0.8205 -0.5379
vn 0.9916 0.1222 0.0419
vn -0.0491 0.5424 -0.8387
usemtl Material.001
s 1
f 1/1/1 2/2/1 3/3/1 4/4/1
f 5/5/2 4/4/2 3/6/2 6/7/2
f 6/8/3 3/9/3 2/10/3 7/11/3
f 7/12/4 8/13/4 5/5/4 6/14/4
f 8/13/5 1/1/5 4/4/5 5/5/5
f 7/11/6 2/10/6 1/1/6 8/13/6
