# Blender v2.83.4 OBJ File: ''
# www.blender.org
mtllib bicycle.mtl
o Cube.001
v 0.831907 0.758983 -0.943573
v 0.227729 0.597094 -0.943573
v 0.258752 0.481315 -0.424385
v 0.862931 0.643204 -0.424385
v 1.051475 -0.060454 -0.592569
v 0.447297 -0.222343 -0.592569
v 0.416273 -0.106564 -1.111756
v 1.020452 0.055326 -1.111756
vt 0.625000 0.500000
vt 0.875000 0.500000
vt 0.875000 0.750000
vt 0.625000 0.750000
vt 0.375000 0.750000
vt 0.625000 1.000000
vt 0.375000 1.000000
vt 0.375000 0.000000
vt 0.625000 0.000000
vt 0.625000 0.250000
vt 0.375000 0.250000
vt 0.125000 0.500000
vt 0.375000 0.500000
vt 0.125000 0.750000
vn -0.2522 0.9412 0.2250
vn 0.0582 -0.2173 0.9744
vn -0.9659 -0.2588 0.0000
vn 0.2522 -0.9412 -0.2250
vn 0.9659 0.2588 -0.0000
vn -0.0582 0.2173 -0.9744
usemtl Material.001
s 1
f 1/1/1 2/2/1 3/3/1 4/4/1
f 5/5/2 4/4/2 3/6/2 6/7/2
f 6/8/3 3/9/3 2/10/3 7/11/3
f 7/12/4 8/13/4 5/5/4 6/14/4
f 8/13/5 1/1/5 4/4/5 5/5/5
f 7/11/6 2/10/6 1/1/6 8/13/6
