# Blender v2.83.4 OBJ File: ''
# www.blender.org
mtllib kitchen_teapot.mtl
o Cube.006
v 0.959247 2.440634 -1.176948
v -0.105340 2.239061 -1.307437
v -0.076951 1.547164 -0.470243
v 0.987636 1.748736 -0.339754
v 1.275566 0.762190 -1.164848
v 0.210978 0.560618 -1.295337
v 0.182590 1.252513 -2.132530
v 1.247177 1.454086 -2.002041
vt 0.625000 0.500000
vt 0.875000 0.500000
vt 0.875000 0.750000
vt 0.625000 0.750000
vt 0.375000 0.750000
vt 0.625000 1.000000
vt 0.375000 1.000000
vt 0.375000 0.000000
vt 0.625000 0.000000
vt 0.625000 0.250000
vt 0.375000 0.250000
vt 0.125000 0.500000
vt 0.375000 0.500000
vt 0.125000 0.750000
vn -0.2185 0.7486 0.6260
vn 0.0261 -0.6368 0.7706
vn -0.9755 -0.1847 -0.1196
vn 0.2185 -0.7486 -0.6260
vn 0.9755 0.1847 0.1196
vn -0.0261 0.6368 -0.7706
usemtl Material.006
s 1
f 1/1/1 2/2/1 3/3/1 4/4/1
f 5/5/2 4/4/2 3/6/2 6/7/2
f 6/8/3 3/9/3 2/10/3 7/11/3
f 7/12/4 8/13/4 5/5/4 6/14/4
f 8/13/5 1/1/5 4/4/5 5/5/5
f 7/11/6 2/10/6 1/1/6 8/13/6
